<?xml version="1.0" encoding="UTF-8"?>
<!DOCTYPE svg PUBLIC "-//W3C//DTD SVG 1.1//EN" "http://www.w3.org/Graphics/SVG/1.1/DTD/svg11.dtd">
<!-- Creator: CorelDRAW 2026 -->
<svg xmlns="http://www.w3.org/2000/svg" xml:space="preserve" width="4.91193in" height="4.13023in" version="1.1" style="shape-rendering:geometricPrecision; text-rendering:geometricPrecision; image-rendering:optimizeQuality; fill-rule:evenodd; clip-rule:evenodd"
viewBox="0 0 366.08 307.82"
 xmlns:xlink="http://www.w3.org/1999/xlink"
 xmlns:xodm="http://www.corel.com/coreldraw/odm/2003">
 <defs>
  <style type="text/css">
   <![CDATA[
    .str0 {stroke:#373535;stroke-width:0.52;stroke-miterlimit:2.61313}
    .fil4 {fill:black}
    .fil0 {fill:#13181B}
    .fil5 {fill:#477E01}
    .fil3 {fill:#79CE02}
    .fil2 {fill:#8AE20C}
    .fil1 {fill:#ADF91A}
    .fil6 {fill:white}
    .fil7 {fill:white}
   ]]>
  </style>
 </defs>
 <g id="Layer_x0020_1">
  <metadata id="CorelCorpID_0Corel-Layer"/>
  <g>
   <path class="fil0" d="M142.09 0.08l47.05 38.27 -7.35 16.38c-0.07,0.16 -0.25,0.25 -0.43,0.21l-39.72 -9.61 0.02 -45.06c0,-0.05 0.02,-0.1 0.05,-0.15 0.11,-0.15 0.24,-0.16 0.38,-0.04z"/>
   <path class="fil1" d="M357.91 81.37l-4.77 -0.41c-0.26,-0.02 -0.51,-0.06 -0.75,-0.16 -2.42,-1.01 -4.93,-1.65 -7.53,-1.92 -1.33,-0.14 -2.76,-0.42 -4.28,-0.84l-61.05 -17.26c-35.11,-33.16 -42.49,-25.11 -85.64,-22.69l-4.75 0.25 -47.05 -38.27c1.87,0.01 3.71,0.14 5.49,0.4 2.86,0.4 4.31,0.61 4.37,0.62 18.72,2.09 37.7,4.34 56.95,6.71 9.33,1.15 18.15,2.05 27.1,3.15 0.47,0.06 0.93,0.21 1.33,0.45l101.28 58.84c2.92,1.78 6.24,3.68 9.98,5.7 1.52,0.82 5.02,2.89 9.31,5.43z"/>
   <path class="fil2" d="M365.96 108.39c-0.29,0.61 -0.57,1.23 -0.86,1.84 -0.67,1.45 -1.18,2.76 -1.85,4.23 -3.24,7.01 -6.81,13.94 -10.8,16.17 -0.15,0.08 -0.36,0.08 -0.52,0.16 -6.11,3.17 -17.19,4.64 -42.4,8.78l-111.92 22.87c-4.81,1.22 -13.5,2.78 -17.88,6.21 -19.02,14.88 -24.72,45.76 -27.19,69.51 -3.02,29.02 23.73,41.8 38.38,58.65l-49.95 -7.95c-5.36,-39.29 -12.54,-131.27 40.28,-143.41l38.66 -3.16c-54.42,-19.85 -62.99,-17.31 -47.13,-54.93l-68.76 52.84 -32.18 31.56c10.43,-27.37 23.01,-59.92 33.76,-82.88l10.74 -18.57c8.32,-12.55 16.99,-16.96 25.3,-24.97 48.23,7.28 36.1,10.97 47.5,-6.98 44.99,-3.26 54.94,-12.73 90.39,22.44l61.05 17.26c1.52,0.42 2.95,0.7 4.28,0.84 2.6,0.27 5.12,0.92 7.53,1.92 0.24,0.1 0.49,0.15 0.75,0.16 7.5,0.13 4.08,-2.64 12.52,24.11l0.28 1.89 0.02 1.42zm-186.23 -62.22l0 0z"/>
   <path class="fil3" d="M102.17 67.99c0,0.19 -0.16,0.36 -0.36,0.36l-29.86 0c-0.19,0 -0.35,-0.16 -0.35,-0.36l0 -30.41c0,-0.2 0.16,-0.36 0.35,-0.36l29.86 0c0.2,0 0.36,0.16 0.36,0.36l0 30.41zm-47.19 102.93c0,0.18 -0.14,0.32 -0.32,0.32l-30.13 0c-0.18,0 -0.32,-0.15 -0.32,-0.32l0 -30.7c0,-0.18 0.14,-0.32 0.32,-0.32l30.13 0c0.18,0 0.32,0.14 0.32,0.32l0 30.7zm26.01 -42.44c0,0.21 -0.17,0.38 -0.38,0.38l-30.3 0c-0.21,0 -0.38,-0.17 -0.38,-0.38l0 -30.82c0,-0.21 0.17,-0.38 0.38,-0.38l30.3 0c0.21,0 0.38,0.17 0.38,0.38l0 30.82zm-36.6 -39.18c0,0.18 -0.15,0.33 -0.33,0.33l-15.04 0.03c-0.18,0 -0.33,-0.15 -0.33,-0.33l-0.03 -15.04c0,-0.18 0.15,-0.33 0.33,-0.33l15.04 -0.03c0.18,0 0.33,0.15 0.33,0.33l0.03 15.04z"/>
   <path class="fil1" d="M185.75 46.9c0.03,0.01 0.03,0.08 0,0.15 -0.03,0.06 -0.08,0.1 -0.12,0.08 -0.03,-0.01 -0.03,-0.08 -0,-0.14 0.03,-0.06 0.08,-0.1 0.12,-0.09z"/>
   <path class="fil4" d="M283.12 88.2l2.64 4.02c0.12,0.18 -0.01,0.41 -0.23,0.41 -8.43,-0.22 -17.41,-0.55 -26.93,-0.99 -5.45,-0.25 -11.22,-0.69 -17.32,-1.31 -2.16,-0.22 -3.79,-0.49 -4.9,-0.81 -3.72,-1.07 -7.13,-1.98 -9.71,-3.61 -1.34,-0.84 -3.04,-2.01 -5.1,-3.5 -1.73,-1.25 -3.26,-2.64 -4.57,-4.16 -5.65,-6.54 -9.21,-13.48 -12.87,-21.46 -0.19,-0.38 -0.3,-0.8 -0.3,-1.24 -0,-0.15 0.07,-0.28 0.2,-0.35 7.89,-4.88 17.55,-7.64 26.87,-8.58 8.51,-0.85 16.15,1.12 23.08,5.82 3.54,2.41 6.12,4.62 8.8,7.71 2.09,2.41 4.2,5.11 6.32,8.09 4.77,6.68 9.44,13.33 14.02,19.96zm-37.06 -31.28c-0.95,-3.86 -2.65,-6.51 -5.35,-3.86 -5.33,5.23 -7.46,18.09 -6.09,25.08 1.5,7.69 6.31,10.4 9.75,1.34 2.64,-6.98 3.48,-15.28 1.69,-22.56z"/>
   <path class="fil1" d="M285.8 92.33c-0.03,1.82 -7.25,0.87 -9.1,1.07 -9.33,1.03 -14.5,1.59 -15.51,1.67 -7.7,0.65 -12.7,1.08 -14.98,1.29 -3.3,0.3 -5.87,0.4 -7.72,0.29 -15.92,-0.94 -27.82,-13.65 -32.08,-28.59 -0.97,-3.39 -2.11,-8.1 -2.26,-11.27 3.66,7.97 7.21,14.92 12.87,21.46 5.21,6.04 11.9,9.12 19.38,11.27 1.11,0.32 2.74,0.59 4.9,0.81 6.09,0.62 11.87,1.06 17.32,1.31 9.52,0.44 18.76,0.47 27.2,0.68z"/>
   <path class="fil4" d="M350.14 96.76c-0.12,0.05 -0.26,0.05 -0.44,0.02 -2.45,-0.48 -4.94,-1.19 -7.46,-2.15 -1.66,-0.63 -2.79,-1.61 -3.39,-2.94 -0.54,-1.21 -1.23,-3.19 -1.46,-4.94 -0.06,-0.4 0.22,-0.78 0.62,-0.85 3.34,-0.61 7.38,-0.22 9.49,2.78 1.67,2.38 2.61,4.98 2.81,7.82 0.01,0.14 -0.04,0.23 -0.16,0.28z"/>
   <path class="fil0" d="M140.96 288.85c-32.42,-11.7 -112.39,-34.48 -96.46,-76.13 13.76,-35.98 67.39,-80.44 98.38,-104.63 9.42,-7.35 19.3,-14.34 29.63,-20.96 0.15,-0.1 0.33,0.06 0.26,0.22 -18.35,43.23 10.92,39.54 47.13,54.93 0.19,0.07 0.15,0.34 -0.04,0.36 -81.09,9.57 -86.49,55.94 -80.26,136.48 0.45,3.22 0.91,6.47 1.36,9.74z"/>
   <path class="fil0" d="M365.94 106.97c0.21,0.53 0.19,1.07 -0.07,1.63 -0.91,2.02 -1.78,3.97 -2.63,5.86 -8.22,1.3 -17.49,2.39 -24.64,3.48 -9.76,1.48 -17.26,2.38 -27.41,3.97 -10.36,1.61 -21.64,3.01 -30.08,4.49 -0.84,0.15 -1.53,0.11 -2.08,-0.12 -10.7,-4.52 -21.71,-9.55 -33.04,-15.07 -0.03,-0.02 -0.05,-0.05 -0.04,-0.09 0.01,-0.04 0.05,-0.05 0.08,-0.04 1.64,0.41 2.99,0.77 4.06,1.08 5.97,1.74 13.6,4.09 22.89,7.05 1.72,0.55 3.71,1.23 5.98,2.04 1.03,0.37 1.84,0.5 3,0.33 7.43,-1.08 14.53,-2.28 21.3,-3.61 7.18,-1.41 12.26,-2.38 15.24,-2.92 16.88,-3.03 31.82,-5.47 47.43,-8.08z"/>
   <path class="fil0" d="M24.1 138.9c0,0.17 -0.14,0.31 -0.31,0.31l-23.49 0c-0.17,0 -0.31,-0.14 -0.31,-0.31l0 -24c0,-0.17 0.14,-0.31 0.31,-0.31l23.49 0c0.17,0 0.31,0.14 0.31,0.31l0 24zm92.24 -68.6l11.68 0.01c0.22,0 0.4,0.18 0.4,0.4l0 30.15c0,0.15 -0.12,0.27 -0.27,0.27l-16.9 0.05 -13.48 -0.03c-0.12,0 -0.23,-0.1 -0.23,-0.23l0 -30.39c0,-0.11 0.09,-0.19 0.19,-0.19l18.6 -0.04z"/>
   <path class="fil0" d="M352.44 130.63l-101.27 46.9c-28.78,24.32 -13.17,34.14 -7,42.41l65.07 87.88 -118.32 -11.02c-37.12,-34.25 -54.63,-48.7 -20.94,-95.55 13.18,-18.34 58.05,-47.37 69.77,-49.68l112.7 -20.95z"/>
   <path class="fil5" d="M239.74 151.58c-37.74,20.7 -69.31,41.33 -86.82,83.03 1.24,-30.51 10.57,-53.27 26.8,-65.97 9.2,-7.2 47.11,-16.11 60.02,-17.07z"/>
   <path class="fil6" d="M94.7 192.41c4.27,0 6.6,0 6.99,0 2.32,0.01 2.79,1.21 2.78,3.38 -0.05,6.98 -0.06,12.04 -0.03,15.18 0.01,0.12 0.1,0.22 0.22,0.22 9.22,-0 14.08,-0.01 14.57,-0.01 3.08,-0.03 2.9,1.81 2.88,4.48 -0.03,4.19 -0.03,8.1 -0.01,11.7 0.02,2.04 -0.4,3.16 -2.65,3.16 -6.62,0 -11.55,0.01 -14.8,0.02 -0.14,0 -0.26,0.12 -0.25,0.26 0.05,9.23 0.04,14.5 -0.01,15.83 -0.06,1.22 -0.73,1.89 -2.02,1.98 -0.44,0.03 -2.99,0.04 -7.67,0.04 -4.67,0 -7.23,-0.01 -7.67,-0.04 -1.29,-0.1 -1.96,-0.76 -2.02,-1.98 -0.06,-1.33 -0.06,-6.6 -0.02,-15.83 0,-0.14 -0.11,-0.26 -0.25,-0.26 -3.24,-0.01 -8.17,-0.01 -14.8,-0.02 -2.25,0 -2.67,-1.11 -2.65,-3.15 0.03,-3.61 0.02,-7.51 -0.01,-11.7 -0.02,-2.67 -0.2,-4.51 2.88,-4.49 0.49,0.01 5.34,0.01 14.57,0.01 0.12,0 0.22,-0.1 0.22,-0.22 0.03,-3.15 0.03,-8.21 -0.03,-15.19 -0.02,-2.17 0.45,-3.37 2.77,-3.38 0.39,0 2.72,-0 6.99,-0z"/>
   <path class="fil2" d="M212.48 219.98c1.12,5.91 -2.81,11.63 -8.79,12.78 -5.98,1.14 -11.74,-2.73 -12.87,-8.65 -1.13,-5.91 2.81,-11.63 8.79,-12.77 5.98,-1.14 11.74,2.73 12.87,8.64zm0.19 44.88c0,6.08 -4.93,11.01 -11.02,11.01 -6.08,0 -11.02,-4.93 -11.02,-11.01 0,-6.08 4.93,-11.02 11.02,-11.02 6.08,0 11.02,4.93 11.02,11.02zm22.1 -21.38c0,6.11 -4.96,11.07 -11.07,11.07 -6.11,0 -11.07,-4.95 -11.07,-11.07 0,-6.12 4.96,-11.07 11.07,-11.07 6.12,0 11.07,4.95 11.07,11.07zm-44.48 -0.11c0,6.07 -4.92,10.99 -10.99,10.99 -6.07,0 -10.99,-4.92 -10.99,-10.99 0,-6.07 4.92,-10.99 10.99,-10.99 6.07,0 10.99,4.92 10.99,10.99z"/>
   <path class="fil7 str0" d="M244.37 79.49c2.64,-6.98 3.48,-15.28 1.69,-22.56 -0.95,-3.86 -2.65,-6.51 -5.35,-3.86 -5.33,5.23 -7.46,18.09 -6.09,25.08 1.5,7.69 6.31,10.4 9.75,1.34z"/>
  </g>
 </g>
</svg>
